<svg width="23" height="25" viewBox="0 0 23 25" fill="none" xmlns="http://www.w3.org/2000/svg">
<path d="M9.17559 15.5475L9.5313 15.5491C14.8164 15.5992 17.8196 16.7851 17.8196 19.9634C17.8196 23.067 14.9598 24.2506 9.88174 24.3477L9.17559 24.3542C3.66968 24.3542 0.531616 23.1873 0.531616 19.9382C0.531616 16.6928 3.65581 15.5475 9.17559 15.5475ZM9.17559 17.3475L8.80608 17.3494C4.43096 17.3952 2.17767 18.2665 2.17767 19.9382C2.17767 21.6664 4.56503 22.5543 9.17559 22.5543C13.792 22.5543 16.1735 21.6809 16.1735 19.9634C16.1735 18.2353 13.7861 17.3475 9.17559 17.3475ZM19.4104 7.70293C19.8271 7.70293 20.1714 8.04152 20.2259 8.48081L20.2334 8.60293L20.2327 10.1087L21.6555 10.1088C22.1101 10.1088 22.4785 10.5118 22.4785 11.0088C22.4785 11.4644 22.1689 11.841 21.7672 11.9006L21.6555 11.9088L20.2327 11.9087L20.2334 13.4149C20.2334 13.912 19.865 14.3149 19.4104 14.3149C18.9937 14.3149 18.6494 13.9763 18.5949 13.5371L18.5874 13.4149L18.5866 11.9087L17.1673 11.9088C16.7127 11.9088 16.3443 11.5059 16.3443 11.0088C16.3443 10.5532 16.6539 10.1766 17.0556 10.117L17.1673 10.1088L18.5866 10.1087L18.5874 8.60293C18.5874 8.10588 18.9559 7.70293 19.4104 7.70293ZM9.17559 0.599892C12.4131 0.599892 15.0114 3.44124 15.0114 6.98149C15.0114 10.5209 12.4127 13.3631 9.17559 13.3631C5.93921 13.3631 3.33978 10.5205 3.33978 6.98149C3.33978 3.44162 5.93886 0.599892 9.17559 0.599892ZM9.17559 2.39989C6.84789 2.39989 4.98583 4.43579 4.98583 6.98149C4.98583 9.52643 6.8483 11.5631 9.17559 11.5631C11.5036 11.5631 13.3653 9.52688 13.3653 6.98149C13.3653 4.43535 11.504 2.39989 9.17559 2.39989Z" fill="#666666"/>
</svg>
