<svg width="19" height="25" viewBox="0 0 19 25" fill="none" xmlns="http://www.w3.org/2000/svg">
<path d="M12.7813 0.20002C16.1419 0.20002 18.2838 1.92205 18.2838 5.3092V22.1971C18.2838 22.7284 18.0956 23.2378 17.7606 23.6135C17.4255 23.9891 16.9711 24.2 16.485 24.2C16.195 24.1949 15.91 24.115 15.6351 23.9566L9.47636 20.1962L3.34254 23.9644C2.60377 24.3949 1.70859 24.1963 1.14768 23.4771L1.0401 23.3263L0.937333 23.1409C0.803224 22.8538 0.730871 22.5356 0.725952 22.1971V5.52123C0.725952 1.99917 2.82099 0.20002 6.22853 0.20002H12.7813ZM12.7813 1.93731H6.22853C3.60024 1.93731 2.27549 3.07496 2.27549 5.52123L2.27538 22.1827C2.27617 22.2357 2.28801 22.2878 2.27513 22.2677L2.31625 22.3423C2.38707 22.4505 2.51999 22.4858 2.613 22.4318L8.74424 18.6659C9.20122 18.3891 9.75184 18.3891 10.2111 18.6673L16.3593 22.4208C16.4059 22.4476 16.4573 22.462 16.4973 22.4628C16.5602 22.4628 16.6205 22.4348 16.6649 22.385C16.7093 22.3352 16.7343 22.2676 16.7343 22.1971V5.3092C16.7343 3.02948 15.3759 1.93731 12.7813 1.93731ZM13.2446 7.77998C13.6725 7.77998 14.0194 8.16888 14.0194 8.64863C14.0194 9.08839 13.7279 9.45182 13.3497 9.50934L13.2446 9.51727H5.70847C5.28058 9.51727 4.9337 9.12837 4.9337 8.64863C4.9337 8.20886 5.22517 7.84543 5.60334 7.78791L5.70847 7.77998H13.2446Z" fill="#666666"/>
</svg>
