<svg width="21" height="25" viewBox="0 0 21 25" fill="none" xmlns="http://www.w3.org/2000/svg">
<path d="M14.4454 0.199982C14.8296 0.199982 15.1471 0.514944 15.1973 0.923587L15.2042 1.03719L15.2043 1.9835C18.3208 2.21743 20.2291 4.42264 20.2192 7.98293V18.1693C20.2192 21.9431 18.0766 24.2 14.6328 24.2H6.07474C2.6351 24.2 0.488464 21.9047 0.488464 18.0849V7.98293C0.488464 4.42392 2.40291 2.21811 5.51262 1.9836L5.51272 1.03719C5.51272 0.574813 5.85247 0.199982 6.27159 0.199982C6.65578 0.199982 6.97328 0.514944 7.02353 0.923587L7.03046 1.03719L7.03031 1.96278H13.6862L13.6865 1.03719C13.6865 0.574813 14.0263 0.199982 14.4454 0.199982ZM18.7011 10.1396H2.00554L2.00621 18.0849C2.00621 20.875 3.37043 22.4237 5.8256 22.5207L6.07474 22.5256H14.6328C17.2537 22.5256 18.7014 21.0006 18.7014 18.1693L18.7011 10.1396ZM14.8578 17.1632C15.2769 17.1632 15.6167 17.538 15.6167 18.0004C15.6167 18.4243 15.3312 18.7745 14.9608 18.83L14.8578 18.8376C14.4293 18.8376 14.0896 18.4628 14.0896 18.0004C14.0896 17.5766 14.3751 17.2263 14.7455 17.1708L14.8578 17.1632ZM10.3679 17.1632C10.787 17.1632 11.1267 17.538 11.1267 18.0004C11.1267 18.4243 10.8412 18.7745 10.4708 18.83L10.3679 18.8376C9.93937 18.8376 9.59961 18.4628 9.59961 18.0004C9.59961 17.5766 9.8851 17.2263 10.2555 17.1708L10.3679 17.1632ZM5.86852 17.1632C6.28764 17.1632 6.6274 17.538 6.6274 18.0004C6.6274 18.4243 6.3419 18.7745 5.9715 18.83L5.85915 18.8376C5.44004 18.8376 5.10028 18.4628 5.10028 18.0004C5.10028 17.5766 5.38577 17.2263 5.75618 17.1708L5.86852 17.1632ZM14.8578 12.8248C15.2769 12.8248 15.6167 13.1996 15.6167 13.662C15.6167 14.0858 15.3312 14.4361 14.9608 14.4915L14.8578 14.4992C14.4293 14.4992 14.0896 14.1243 14.0896 13.662C14.0896 13.2381 14.3751 12.8878 14.7455 12.8324L14.8578 12.8248ZM10.3679 12.8248C10.787 12.8248 11.1267 13.1996 11.1267 13.662C11.1267 14.0858 10.8412 14.4361 10.4708 14.4915L10.3679 14.4992C9.93937 14.4992 9.59961 14.1243 9.59961 13.662C9.59961 13.2381 9.8851 12.8878 10.2555 12.8324L10.3679 12.8248ZM5.86852 12.8248C6.28764 12.8248 6.6274 13.1996 6.6274 13.662C6.6274 14.0858 6.3419 14.4361 5.9715 14.4915L5.85915 14.4992C5.44004 14.4992 5.10028 14.1243 5.10028 13.662C5.10028 13.2381 5.38577 12.8878 5.75618 12.8324L5.86852 12.8248ZM13.6862 3.63678H7.03031L7.03046 4.71062C7.03046 5.173 6.6907 5.54783 6.27159 5.54783C5.8874 5.54783 5.56989 5.23287 5.51964 4.82422L5.51272 4.71062L5.51164 3.66224C3.24956 3.87003 2.00621 5.36791 2.00621 7.98293L2.00554 8.46438H18.7011L18.7014 7.98036C18.7087 5.36328 17.4717 3.86851 15.2043 3.66197L15.2042 4.71062C15.2042 5.173 14.8645 5.54783 14.4454 5.54783C14.0612 5.54783 13.7437 5.23287 13.6934 4.82422L13.6865 4.71062L13.6862 3.63678Z" fill="#666666"/>
</svg>
