<svg width="23" height="24" viewBox="0 0 23 24" fill="none" xmlns="http://www.w3.org/2000/svg">
<path d="M16.288 1.52588e-05C20.0095 1.52588e-05 22.4785 2.9 22.4785 7.07182V16.9282C22.4785 21.1 20.0095 24 16.288 24H6.7216C3.00012 24 0.531128 21.1 0.531128 16.9282V7.07182C0.531128 2.9039 3.00664 1.52588e-05 6.7216 1.52588e-05H16.288ZM16.288 1.67443H6.7216C3.87726 1.67443 2.06234 3.80341 2.06234 7.07182V16.9282C2.06234 20.201 3.87121 22.3256 6.7216 22.3256H16.288C19.1384 22.3256 20.9473 20.201 20.9473 16.9282V7.07182C20.9473 3.79906 19.1384 1.67443 16.288 1.67443ZM6.77993 9.15542C7.16753 9.15542 7.48785 9.47038 7.53855 9.87902L7.54554 9.99262V17.6504C7.54554 18.1128 7.20276 18.4877 6.77993 18.4877C6.39233 18.4877 6.07201 18.1727 6.02131 17.7641L6.01432 17.6504V9.99262C6.01432 9.53025 6.3571 9.15542 6.77993 9.15542ZM11.5437 5.49113C11.9313 5.49113 12.2516 5.80609 12.3023 6.21474L12.3093 6.32834V17.6504C12.3093 18.1128 11.9665 18.4877 11.5437 18.4877C11.1561 18.4877 10.8358 18.1727 10.7851 17.7641L10.7781 17.6504V6.32834C10.7781 5.86596 11.1209 5.49113 11.5437 5.49113ZM16.2297 13.2021C16.6173 13.2021 16.9376 13.517 16.9883 13.9257L16.9953 14.0393V17.6504C16.9953 18.1128 16.6525 18.4877 16.2297 18.4877C15.8421 18.4877 15.5218 18.1727 15.4711 17.7641L15.4641 17.6504V14.0393C15.4641 13.5769 15.8069 13.2021 16.2297 13.2021Z" fill="#666666"/>
</svg>
