<svg width="31" height="31" viewBox="0 0 31 31" fill="none" xmlns="http://www.w3.org/2000/svg">
<path fill-rule="evenodd" clip-rule="evenodd" d="M15.6474 0.200439C19.6696 0.200439 23.4496 1.76424 26.2888 4.60484C32.1576 10.4736 32.1576 20.0216 26.2888 25.8904C23.4118 28.7688 19.538 30.292 15.6138 30.292C13.4746 30.292 11.3214 29.8398 9.30682 28.9074C8.71322 28.6694 8.15742 28.4454 7.75842 28.4454C7.29922 28.4482 6.68182 28.661 6.08542 28.8668C4.86182 29.2868 3.33862 29.8104 2.21162 28.6876C1.08882 27.5634 1.60682 26.0444 2.02402 24.8222C2.22982 24.2202 2.44122 23.5986 2.44122 23.1282C2.44122 22.7418 2.25502 22.249 1.96942 21.5392C-0.652779 15.8762 0.559621 9.05124 5.00742 4.60624C7.84662 1.76564 11.6252 0.200439 15.6474 0.200439ZM15.6488 2.30044C12.1866 2.30044 8.93442 3.64724 6.49142 6.09164C2.66382 9.91644 1.62222 15.7894 3.89722 20.7076C4.22482 21.5182 4.54122 22.3078 4.54122 23.1282C4.54122 23.9472 4.25982 24.7718 4.01202 25.4998C3.80762 26.099 3.49822 27.0034 3.69702 27.2022C3.89162 27.4038 4.80162 27.086 5.40222 26.8802C6.12322 26.6338 6.94082 26.351 7.75142 26.3454C8.56342 26.3454 9.32922 26.6534 10.1398 26.9796C15.1056 29.2756 20.9786 28.2312 24.8048 24.4064C29.8532 19.3552 29.8532 11.1386 24.8048 6.09024C22.3604 3.64584 19.1096 2.30044 15.6488 2.30044ZM21.1745 14.4282C21.9473 14.4282 22.5745 15.054 22.5745 15.8282C22.5745 16.6024 21.9473 17.2282 21.1745 17.2282C20.4017 17.2282 19.7689 16.6024 19.7689 15.8282C19.7689 15.054 20.3891 14.4282 21.1619 14.4282H21.1745ZM15.5622 14.4282C16.335 14.4282 16.9622 15.054 16.9622 15.8282C16.9622 16.6024 16.335 17.2282 15.5622 17.2282C14.7894 17.2282 14.1566 16.6024 14.1566 15.8282C14.1566 15.054 14.7754 14.4282 15.5496 14.4282H15.5622ZM9.94928 14.4282C10.7221 14.4282 11.3493 15.054 11.3493 15.8282C11.3493 16.6024 10.7221 17.2282 9.94928 17.2282C9.17648 17.2282 8.54368 16.6024 8.54368 15.8282C8.54368 15.054 9.16388 14.4282 9.93668 14.4282H9.94928Z" fill="black" fill-opacity="0.6"/>
</svg>
