<svg width="21" height="25" viewBox="0 0 21 25" fill="none" xmlns="http://www.w3.org/2000/svg">
<path d="M14.588 0.199982C18.0913 0.199982 20.186 2.50398 20.2189 6.35838V17.9492C20.2189 21.8576 18.1187 24.2 14.588 24.2H6.1202C5.66858 24.2 5.23998 24.1616 4.8366 24.086L4.59764 24.0368C1.99866 23.4452 0.488159 21.266 0.488159 17.9492V6.45078C0.488159 6.04998 0.510082 5.66598 0.553928 5.29878C0.936486 2.07678 2.95889 0.199982 6.1202 0.199982H14.588ZM14.5781 1.94838H6.1202C3.42804 1.94838 2.06333 3.46398 2.06333 6.45078V17.9492C2.06333 20.936 3.42804 22.4516 6.1202 22.4516H14.5781C17.2692 22.4516 18.6251 20.936 18.6251 17.9492V6.45078C18.6251 3.46398 17.2692 1.94838 14.5781 1.94838ZM14.292 16.412C14.7239 16.412 15.0736 16.8008 15.0736 17.2808C15.0736 17.7608 14.7239 18.1496 14.292 18.1496H6.38766C5.95577 18.1496 5.605 17.7608 5.605 17.2808C5.605 16.8008 5.95577 16.412 6.38766 16.412H14.292ZM14.292 11.3252C14.5935 11.2892 14.8883 11.4476 15.0495 11.732C15.2106 12.0188 15.2106 12.3812 15.0495 12.668C14.8883 12.9524 14.5935 13.1108 14.292 13.0748H6.38766C5.98647 13.0244 5.68283 12.6488 5.68283 12.2C5.68283 11.7512 5.98647 11.3744 6.38766 11.3252H14.292ZM9.40427 6.25038C9.80547 6.29958 10.1091 6.67638 10.1091 7.12518C10.1091 7.57278 9.80547 7.94958 9.40427 7.99878H6.39752C5.99523 7.94958 5.6916 7.57278 5.6916 7.12518C5.6916 6.67638 5.99523 6.29958 6.39752 6.25038H9.40427Z" fill="#666666"/>
</svg>
