<svg width="21" height="22" viewBox="0 0 21 22" fill="none" xmlns="http://www.w3.org/2000/svg">
<path d="M19.605 19.6507C20.0036 19.6507 20.3268 19.9975 20.3268 20.4254C20.3268 20.8175 20.0553 21.1416 19.7029 21.1929L19.605 21.2H12.0739C11.6752 21.2 11.352 20.8532 11.352 20.4254C11.352 20.0332 11.6236 19.7091 11.9759 19.6578L12.0739 19.6507H19.605ZM12.2802 1.89993C13.6469 0.433341 15.8636 0.433341 17.2302 1.89993L18.649 3.42246C20.0157 4.88905 20.0157 7.2678 18.649 8.73439L7.98481 20.1783C7.37502 20.8327 6.54826 21.1999 5.68531 21.1999H1.31793C0.912216 21.1999 0.586187 20.8412 0.596298 20.4059L0.706158 15.6769C0.728 14.7831 1.06881 13.931 1.65788 13.2989L12.2802 1.89993ZM11.4546 4.97479L2.67874 14.3944C2.3513 14.7458 2.16153 15.2202 2.1494 15.7165L2.05774 19.6501L5.68531 19.6506C6.11216 19.6506 6.52265 19.4894 6.84664 19.1981L6.96395 19.0828L15.7833 9.61879L11.4546 4.97479ZM16.2094 2.99543C15.4065 2.13386 14.1039 2.13386 13.3011 2.99543L12.4762 3.87919L16.8038 8.52319L17.6282 7.63889C18.3864 6.8252 18.4286 5.53318 17.7546 4.66633L17.6282 4.51796L16.2094 2.99543Z" fill="#666666"/>
</svg>
