<svg width="23" height="25" viewBox="0 0 23 25" fill="none" xmlns="http://www.w3.org/2000/svg">
<path d="M7.48679 0.800848C7.86429 0.781648 8.25714 1.16685 8.26044 1.62885C8.26373 1.99845 8.54136 2.29725 8.87826 2.29725H9.99208C11.5723 2.29725 12.8738 3.70005 12.8946 5.43645V5.72445H16.0199C19.5129 5.69325 22.3254 8.52885 22.4725 12.2212C22.4779 12.3664 22.479 12.5152 22.4768 12.6628V17.8348C22.5515 21.5644 19.8256 24.6796 16.3996 24.7624C16.2592 24.7661 16.1264 24.7624 15.9925 24.7564C14.4803 24.7852 12.9594 24.7997 11.4461 24.7997C9.94161 24.7997 8.4448 24.7852 6.97213 24.7577C3.59333 24.9149 0.687498 22.006 0.537158 18.2632C0.530574 18.1156 0.530574 17.9668 0.532769 17.818V12.6436C0.496556 10.8472 1.10889 9.12645 2.25783 7.81485C3.40568 6.50205 4.95187 5.75805 6.61219 5.71965C6.74717 5.71485 6.88543 5.71605 7.0237 5.72565L11.3638 5.72445V5.44725C11.3539 4.63605 10.7372 3.97245 9.9866 3.97245H8.87167C7.70407 3.97245 6.74278 2.93205 6.72961 1.64685C6.72522 1.18365 7.0654 0.805648 7.48679 0.800848ZM6.74969 7.3925L6.6484 7.39365C5.39411 7.42365 4.22871 7.98285 3.36398 8.97285C2.49706 9.96045 2.03616 11.2576 2.0636 12.6268V17.8348C2.0614 17.9644 2.06244 18.0772 2.06689 18.1876C2.17992 21.0112 4.35051 23.2192 6.95128 23.0836C9.93502 23.1388 12.967 23.1389 16.0111 23.0825C16.1604 23.0897 16.2657 23.0909 16.37 23.0872C18.9477 23.0273 21.0031 20.6788 20.946 17.854V12.6436C20.9482 12.5176 20.9472 12.406 20.9427 12.2944C20.8319 9.48885 18.759 7.39605 16.1088 7.39605C16.0825 7.39605 16.0605 7.39845 16.0254 7.39845H6.98639C6.84812 7.39249 6.74826 7.39125 6.6484 7.39365L6.74969 7.3925ZM8.30027 12.3024C8.70929 12.3024 9.04731 12.6292 9.10081 13.0532L9.10818 13.1711L9.10718 14.3902L10.2427 14.3909C10.6889 14.3909 11.0506 14.7798 11.0506 15.2595C11.0506 15.6993 10.7467 16.0627 10.3523 16.1202L10.2427 16.1282L9.10718 16.1278L9.10818 17.348C9.10818 17.8277 8.74647 18.2166 8.30027 18.2166C7.89126 18.2166 7.55323 17.8898 7.49973 17.4658L7.49236 17.348L7.49186 16.1278L6.35783 16.1282C5.91163 16.1282 5.54992 15.7392 5.54992 15.2595C5.54992 14.8197 5.85386 14.4563 6.2482 14.3988L6.35783 14.3909L7.49186 14.3902L7.49236 13.1711C7.49236 12.6913 7.85407 12.3024 8.30027 12.3024ZM16.7701 16.4157C17.2163 16.4157 17.578 16.8046 17.578 17.2844C17.578 17.7241 17.2741 18.0875 16.8797 18.1451L16.7701 18.153H16.6616C16.2154 18.153 15.8537 17.7641 15.8537 17.2844C15.8537 16.8446 16.1577 16.4812 16.552 16.4236L16.6616 16.4157H16.7701ZM14.9263 12.4296C15.3725 12.4296 15.7342 12.8185 15.7342 13.2983C15.7342 13.738 15.4302 14.1015 15.0359 14.159L14.9263 14.1669H14.8178C14.3716 14.1669 14.0099 13.778 14.0099 13.2983C14.0099 12.8585 14.3138 12.4951 14.7082 12.4376L14.8178 12.4296H14.9263Z" fill="#666666"/>
</svg>
