<svg width="28" height="29" viewBox="0 0 28 29" fill="none" xmlns="http://www.w3.org/2000/svg">
<path d="M9.98852 26.8827V22.6018C9.98852 21.5091 10.8809 20.6232 11.9816 20.6232H16.0055C16.5341 20.6232 17.041 20.8317 17.4148 21.2027C17.7886 21.5738 17.9986 22.0771 17.9986 22.6018V26.8827C17.9953 27.337 18.1747 27.7738 18.4971 28.0962C18.8196 28.4186 19.2583 28.6 19.7159 28.6H22.4612C23.7433 28.6033 24.9741 28.1 25.8819 27.2011C26.7896 26.3023 27.2998 25.0817 27.2998 23.8089V11.6136C27.2998 10.5854 26.8407 9.61015 26.0463 8.95051L16.7075 1.54619C15.083 0.247962 12.7554 0.289879 11.1794 1.64575L2.05365 8.95051C1.22167 9.59071 0.724402 10.5689 0.699829 11.6136V23.7965C0.699829 26.4494 2.86616 28.6 5.53847 28.6H8.22104C9.17155 28.6 9.94402 27.8387 9.95091 26.8951L9.98852 26.8827Z" fill="#F05501"/>
</svg>
