<svg width="23" height="25" viewBox="0 0 23 25" fill="none" xmlns="http://www.w3.org/2000/svg">
<path d="M16.0989 0.199982C19.8294 0.199982 22.3156 3.11462 22.3156 7.29688V17.1019C22.3156 21.2844 19.8293 24.2 16.0989 24.2H6.5982C2.86957 24.2 0.392517 21.2867 0.392517 17.1019V7.29688C0.392517 3.11669 2.8768 0.199982 6.5982 0.199982H16.0989ZM16.0989 2.00458H6.5982C3.81324 2.00458 2.04004 4.08643 2.04004 7.29688V17.1019C2.04004 20.3176 3.8067 22.3954 6.5982 22.3954H16.0989C18.8933 22.3954 20.6681 20.3142 20.6681 17.1019V7.29688C20.6681 4.08491 18.8936 2.00458 16.0989 2.00458ZM16.8796 12.4202L17.0225 12.5703L19.3027 15.1473C19.6193 15.5051 19.6111 16.0764 19.2844 16.4232C18.9874 16.7385 18.5294 16.7597 18.2107 16.4922L18.1196 16.4032L15.8395 13.8264C15.4423 13.3776 14.7965 13.3734 14.3934 13.7923L14.3049 13.8965L11.8571 17.1574C10.9912 18.3127 9.43335 18.4365 8.4254 17.4684L8.29148 17.3296L7.31458 16.2377C7.05797 15.946 6.64874 15.9184 6.36377 16.1538L6.27376 16.242L4.59438 18.1826C4.28139 18.5442 3.76 18.5595 3.42982 18.2167C3.12966 17.905 3.09085 17.4047 3.32142 17.0446L3.39869 16.9411L5.07771 15.0009C5.96163 13.9783 7.41724 13.9238 8.35883 14.836L8.49608 14.9801L9.46805 16.0664C9.75218 16.3838 10.2076 16.3919 10.5012 16.1063L10.5841 16.0119L13.0321 12.7506C14.0047 11.4539 15.7561 11.3226 16.8796 12.4202ZM7.59715 5.76946C9.1153 5.76946 10.3474 7.11905 10.3474 8.78195C10.3474 10.4448 9.1153 11.7944 7.59715 11.7944C6.07906 11.7944 4.84798 10.4449 4.84798 8.78195C4.84798 7.11898 6.07906 5.76946 7.59715 5.76946ZM7.59715 7.57407C6.98925 7.57407 6.4955 8.11531 6.4955 8.78195C6.4955 9.44858 6.98925 9.98983 7.59715 9.98983C8.2054 9.98983 8.69989 9.44819 8.69989 8.78195C8.69989 8.1157 8.2054 7.57407 7.59715 7.57407Z" fill="#666666"/>
</svg>
