<svg width="26" height="26" viewBox="0 0 26 26" fill="none" xmlns="http://www.w3.org/2000/svg">
<path d="M24.2047 12.1637V21.1816H20.2051L20.0031 21.2043C16.29 22.0308 13.8295 22.6268 12.6032 22.996C10.9743 23.4861 10.3671 23.6058 9.26229 23.6764C8.43597 23.7306 7.49745 23.4269 7.06977 23.0111C6.83349 22.7818 6.65661 22.3105 6.58665 21.5797C6.57216 21.4265 6.51476 21.2798 6.42048 21.155C6.32619 21.0302 6.19848 20.9319 6.05073 20.8704C5.72205 20.7343 5.44881 20.5125 5.22045 20.1899C5.00925 19.8951 4.87197 19.3458 4.84689 18.5507C4.84248 18.4045 4.79907 18.2619 4.72076 18.1362C4.64246 18.0105 4.53185 17.906 4.39941 17.8325C3.63117 17.4079 3.25101 16.9291 3.17181 16.3671C3.08469 15.7459 3.29589 15.0466 3.84897 14.2503C3.97873 14.0636 4.02707 13.8358 3.98368 13.6156C3.9403 13.3954 3.80862 13.2 3.61665 13.071C3.08733 12.7156 2.79693 12.2217 2.72433 11.5211C2.60817 10.4048 3.35397 9.57949 5.04225 9.41443C6.5459 9.27247 8.06407 9.39331 9.52233 9.77101C9.68775 9.81228 9.86207 9.80758 10.0248 9.75749C10.1875 9.70739 10.3319 9.61398 10.4409 9.48823C10.5498 9.36249 10.6189 9.20964 10.64 9.04769C10.6611 8.88573 10.6333 8.72139 10.5598 8.57401C9.89985 7.24093 9.53289 6.14095 9.44709 5.28919C9.33489 4.15897 9.60813 3.33997 10.247 2.66461C10.7314 2.15305 11.5063 1.86073 11.7967 1.92121C12.1795 1.99933 12.429 2.21101 12.7537 2.95189C12.9451 3.39037 13.0375 3.76333 13.1959 4.63399C13.3477 5.46055 13.4308 5.83351 13.6038 6.32239C14.1252 7.80415 15.4042 9.34009 17.1216 10.3998C18.3252 11.1415 19.6296 11.7223 20.9984 12.126C21.0839 12.1511 21.1729 12.1639 21.2624 12.1637H24.2047ZM24.2601 22.899C24.6865 22.9103 25.0693 22.8196 25.39 22.6054C25.7992 22.332 25.992 21.901 25.9959 21.4046L25.992 12.1776C26.0368 11.6862 25.885 11.2351 25.526 10.9C25.1894 10.585 24.7498 10.4363 24.2852 10.4464H21.401C20.2343 10.0915 19.122 9.59073 18.0931 8.95705C16.7097 8.10277 15.6907 6.87805 15.3013 5.77429C15.168 5.39377 15.0967 5.07877 14.962 4.33789C14.7799 3.34375 14.6664 2.88133 14.405 2.28661C13.8638 1.04929 13.1536 0.444491 12.1742 0.241631C11.2106 0.0425506 9.80745 0.573011 8.92041 1.51045C7.93701 2.54869 7.50273 3.84775 7.66377 5.45299C7.73241 6.14347 7.93305 6.91585 8.26305 7.77643C7.13606 7.61966 5.99314 7.59596 4.86009 7.70587C2.21085 7.96417 0.723206 9.61099 0.939686 11.6925C1.03473 12.5896 1.37529 13.3519 1.95477 13.9504C1.46769 14.8463 1.27365 15.7321 1.39509 16.5964C1.53501 17.5918 2.11581 18.4209 3.08205 19.0648C3.15729 19.938 3.36717 20.6347 3.73941 21.1564C4.03271 21.5778 4.4154 21.9358 4.86273 22.2072C5.00529 23.0691 5.30493 23.7432 5.79465 24.2169C6.60645 25.0057 8.05713 25.4757 9.38241 25.39C10.6404 25.3093 11.3848 25.1632 13.1404 24.634C14.2981 24.285 16.6952 23.7054 20.308 22.899H24.2614H24.2601ZM22.0148 11.7719C22.0152 11.6592 21.9922 11.5475 21.9472 11.4432C21.9023 11.339 21.8362 11.2442 21.7528 11.1644C21.6695 11.0846 21.5704 11.0212 21.4613 10.978C21.3522 10.9348 21.2353 10.9126 21.1172 10.9126C20.9993 10.9129 20.8827 10.9354 20.7739 10.9788C20.6651 11.0221 20.5664 11.0855 20.4833 11.1653C20.4002 11.2451 20.3344 11.3397 20.2896 11.4438C20.2448 11.5479 20.2219 11.6594 20.2222 11.7719V21.4462C20.2221 21.5587 20.2451 21.6701 20.2901 21.7742C20.335 21.8782 20.401 21.9727 20.4842 22.0524C20.5674 22.1321 20.6663 22.1953 20.7751 22.2385C20.884 22.2817 21.0007 22.3041 21.1185 22.3042C21.2364 22.3041 21.3531 22.2817 21.4619 22.2385C21.5708 22.1953 21.6696 22.1321 21.7528 22.0524C21.8361 21.9727 21.902 21.8782 21.947 21.7742C21.9919 21.6701 22.015 21.5587 22.0148 21.4462V11.7719Z" fill="black"/>
</svg>
