<svg width="176" height="43" viewBox="0 0 176 43" fill="none" xmlns="http://www.w3.org/2000/svg">
<g clip-path="url(#clip0_305_364)">
<path d="M6.29944 24.5974H17.2285C22.0827 24.5974 26.0166 20.6312 26.0166 15.7372V0.500549L6.29944 24.5974Z" fill="url(#paint0_linear_305_364)"/>
<path d="M4.66443 16.1931C3.13069 14.3152 2.78916 11.8156 3.59239 9.66357C-0.126517 15.4279 -1.1859 23.0957 2.15985 30.9037C4.08256 35.3864 7.62438 38.9764 12.0675 40.9308C16.9691 43.0892 21.8138 43.4591 26.1652 42.4962L4.66443 16.1931Z" fill="url(#paint1_linear_305_364)"/>
<path d="M4.20275 27.2309C3.34892 28.1714 2.64372 31.1875 3.45011 33.3364C1.2681 29.9537 0 25.9205 0 21.5877C0 9.6636 9.58505 0 21.4122 0C22.9934 0 24.5366 0.172166 26.0197 0.500556L4.20275 27.2309Z" fill="url(#paint2_linear_305_364)"/>
<path d="M70.637 41.798H40.4209V0.551575H70.46V6.97272H46.9669V18.1093H69.5271V24.2371H46.9669V35.3131H70.637V41.7948V41.798Z" fill="black"/>
<path d="M97.3114 12.7498H103.155V41.798H97.4284L97.1375 37.0858C96.2426 38.8521 94.848 40.2071 92.96 41.1508C91.069 42.0945 89.1526 42.5664 87.2046 42.5664C82.8785 42.6046 79.3335 41.2688 76.5696 38.5587C73.8026 35.8487 72.4207 32.077 72.4207 27.2468C72.4207 22.4166 73.8342 18.8298 76.6582 16.1389C79.4822 13.448 83.0366 12.1026 87.3248 12.1026C89.3898 12.1026 91.3188 12.5745 93.1118 13.5182C94.9049 14.4619 96.2489 15.7372 97.1438 17.3473L97.3178 12.7498H97.3114ZM81.1234 20.2613C79.3304 22.0085 78.4354 24.3359 78.4354 27.2436C78.4354 30.1513 79.3304 32.4883 81.1234 34.2546C82.9165 36.0209 85.1364 36.9072 87.7865 36.9072C89.5005 36.9072 91.031 36.5533 92.375 35.8455C93.719 35.1377 94.731 34.2163 95.414 33.0749C96.0971 31.9367 96.6031 30.6901 96.9351 29.3319C97.2672 27.9769 97.2672 26.6124 96.9351 25.2382C96.6031 23.8641 96.0971 22.6079 95.414 21.4665C94.731 20.3283 93.719 19.4037 92.375 18.6959C91.031 17.9881 89.5005 17.6342 87.7865 17.6342C85.1364 17.6342 82.9165 18.5078 81.1234 20.255V20.2613Z" fill="black"/>
<path d="M130.348 12.7498V15.5778L115.855 35.8455H130.465V41.798H106.621V39.3239L121.525 18.2878H107.617V12.7498H130.352H130.348Z" fill="black"/>
<path d="M136.486 0.905452C137.732 0.277366 138.982 0.277366 140.228 0.905452C141.474 1.53354 142.096 2.63349 142.096 4.2053C142.096 5.77711 141.474 6.88662 140.228 7.53384C138.982 8.18105 137.732 8.18105 136.486 7.53384C135.241 6.88662 134.618 5.77711 134.618 4.2053C134.618 2.63349 135.241 1.53354 136.486 0.905452ZM135.316 12.6319V41.798H141.334V12.6319H135.316Z" fill="black"/>
<path d="M171.819 16.4896C174.605 19.3782 175.997 22.9809 175.997 27.301C175.997 31.6211 174.624 35.2653 171.876 38.1124C169.128 40.9595 165.517 42.3846 161.036 42.3846C156.555 42.3846 153.01 40.9595 150.284 38.1124C147.558 35.2653 146.192 31.6593 146.192 27.301C146.192 22.9427 147.564 19.3272 150.312 16.4609C153.06 13.5947 156.634 12.16 161.036 12.16C165.438 12.16 169.033 13.6043 171.819 16.4896ZM154.638 20.526C153.022 22.372 152.213 24.6324 152.213 27.301C152.213 29.9696 153.013 32.2109 154.61 34.0187C156.207 35.8264 158.351 36.7287 161.039 36.7287C163.727 36.7287 165.88 35.8264 167.496 34.0187C169.112 32.2109 169.922 29.9728 169.922 27.301C169.922 24.6292 169.084 22.4198 167.408 20.5547C165.732 18.6895 163.61 17.7554 161.039 17.7554C158.468 17.7554 156.257 18.68 154.638 20.526Z" fill="black"/>
</g>
<defs>
<linearGradient id="paint0_linear_305_364" x1="19.5939" y1="24.2754" x2="13.6134" y2="4.19676" gradientUnits="userSpaceOnUse">
<stop stop-color="#FF9002"/>
<stop offset="0.57" stop-color="#E93D00"/>
<stop offset="1" stop-color="#960B08"/>
</linearGradient>
<linearGradient id="paint1_linear_305_364" x1="26.1652" y1="26.3318" x2="0.145444" y2="26.3318" gradientUnits="userSpaceOnUse">
<stop stop-color="#FF9002"/>
<stop offset="0.57" stop-color="#E93D00"/>
<stop offset="1" stop-color="#960B08"/>
</linearGradient>
<linearGradient id="paint2_linear_305_364" x1="13.0099" y1="33.3364" x2="13.0099" y2="0" gradientUnits="userSpaceOnUse">
<stop stop-color="#F4D65E"/>
<stop offset="0.57" stop-color="#E5B32E"/>
<stop offset="1" stop-color="#F6822B"/>
</linearGradient>
<clipPath id="clip0_305_364">
<rect width="176" height="43" fill="white"/>
</clipPath>
</defs>
</svg>
