<svg width="27" height="31" viewBox="0 0 27 31" fill="none" xmlns="http://www.w3.org/2000/svg">
<path fill-rule="evenodd" clip-rule="evenodd" d="M10.4538 26.9484C11.179 27.7562 12.11 28.2 13.076 28.2H13.0774C14.0476 28.2 14.9828 27.7562 15.7094 26.947C16.0986 26.5172 16.7622 26.4822 17.192 26.87C17.6232 27.2578 17.6582 27.9228 17.2704 28.3526C16.1392 29.6084 14.651 30.3 13.0774 30.3H13.0746C11.5052 30.2986 10.0198 29.607 8.89281 28.3512C8.50501 27.9214 8.54001 27.2564 8.97121 26.87C9.40241 26.4808 10.066 26.5158 10.4538 26.9484ZM13.1457 0.200012C19.3687 0.200012 23.5491 5.04681 23.5491 9.57301C23.5491 11.9012 24.1413 12.8882 24.7699 13.9354C25.3915 14.9686 26.0957 16.1418 26.0957 18.3594C25.6071 24.0252 19.6921 24.4872 13.1457 24.4872C6.59933 24.4872 0.682927 24.0252 0.199909 18.449C0.195727 16.1418 0.899927 14.9686 1.52153 13.9354L1.74097 13.566C2.28127 12.6374 2.74233 11.6273 2.74233 9.57301C2.74233 5.04681 6.92273 0.200012 13.1457 0.200012ZM13.1457 2.30001C8.25273 2.30001 4.84233 6.13321 4.84233 9.57301C4.84233 12.4836 4.03453 13.829 3.32053 15.0162C2.74793 15.9696 2.29573 16.7228 2.29573 18.3594C2.52953 20.9998 4.27253 22.3872 13.1457 22.3872C21.9699 22.3872 23.7675 20.9382 23.9999 18.2684C23.9957 16.7228 23.5435 15.9696 22.9709 15.0162C22.2569 13.829 21.4491 12.4836 21.4491 9.57301C21.4491 6.13321 18.0387 2.30001 13.1457 2.30001Z" fill="black" fill-opacity="0.6"/>
</svg>
