<svg width="27" height="25" viewBox="0 0 27 25" fill="none" xmlns="http://www.w3.org/2000/svg">
<path d="M13.7323 0.400024C20.818 0.400024 26.562 5.77262 26.562 12.4C26.562 19.0274 20.818 24.4 13.7323 24.4C6.64666 24.4 0.902588 19.0274 0.902588 12.4C0.902588 5.77262 6.64666 0.400024 13.7323 0.400024ZM13.7323 2.07444C7.63536 2.07444 2.69278 6.69737 2.69278 12.4C2.69278 18.1027 7.63536 22.7256 13.7323 22.7256C19.8293 22.7256 24.7718 18.1027 24.7718 12.4C24.7718 6.69737 19.8293 2.07444 13.7323 2.07444ZM12.151 7.65361L12.2845 7.66548C12.5257 7.69962 12.8519 7.80209 13.1412 7.90903C14.4565 8.38704 17.0315 10.0044 18.0155 10.9854L18.3024 11.2718L18.4046 11.3824C18.6138 11.6304 18.7235 11.9345 18.7235 12.2459C18.7235 12.539 18.6253 12.8284 18.4368 13.068C18.3863 13.1325 18.3267 13.1941 18.1942 13.3265L17.8481 13.6634C16.8059 14.6156 14.5504 16.0279 13.2697 16.5319C12.9141 16.6715 12.4026 16.8305 12.1592 16.8356C11.5884 16.8525 11.0513 16.5579 10.7873 16.0808C10.7181 15.9551 10.6317 15.657 10.5667 15.3773L10.5014 15.0627C10.3823 14.3779 10.3178 13.3386 10.3191 12.2467L10.3209 11.9006C10.3327 10.8715 10.4022 9.93378 10.5218 9.32401C10.5694 9.07589 10.6752 8.64867 10.7365 8.51028C10.8697 8.21132 11.1099 7.96986 11.4075 7.82085C11.6374 7.70485 11.8982 7.64549 12.151 7.65361ZM12.3288 9.41398L12.2951 9.5651L12.2516 9.80373C12.1609 10.3828 12.1082 11.2825 12.1093 12.2468L12.1111 12.5812C12.1218 13.4653 12.1786 14.2775 12.2678 14.7906L12.33 15.0724L12.5762 14.9882C13.7095 14.5423 15.9587 13.1158 16.7204 12.3477L16.8234 12.2437L16.5515 11.9818C15.6381 11.1638 13.4971 9.83473 12.4881 9.46802L12.3288 9.41398Z" fill="#666666"/>
</svg>
