<svg width="23" height="26" viewBox="0 0 23 26" fill="none" xmlns="http://www.w3.org/2000/svg">
<path d="M16.3103 0.762695C20.1081 0.762695 22.6277 3.75217 22.6277 8.05272V18.2133C22.6277 22.5138 20.1081 25.5033 16.3103 25.5033H6.54774C2.74996 25.5033 0.230347 22.5138 0.230347 18.2133V8.05272C0.230347 3.75619 2.75661 0.762695 6.54774 0.762695H16.3103ZM16.3103 2.48878H6.54774C3.64508 2.48878 1.79295 4.68346 1.79295 8.05272V18.2133C1.79295 21.587 3.63891 23.7772 6.54774 23.7772H16.3103C19.2191 23.7772 21.0651 21.587 21.0651 18.2133V8.05272C21.0651 4.67898 19.2191 2.48878 16.3103 2.48878ZM11.429 8.04369C11.8246 8.04369 12.1515 8.36837 12.2032 8.78963L12.2103 8.90674L12.2096 12.2584L15.2487 12.259C15.6802 12.259 16.03 12.6454 16.03 13.122C16.03 13.559 15.7361 13.9201 15.3547 13.9772L15.2487 13.9851L12.2096 13.9841L12.2103 17.3374C12.2103 17.814 11.8605 18.2004 11.429 18.2004C11.0335 18.2004 10.7066 17.8757 10.6549 17.4545L10.6477 17.3374L10.6474 13.9841L7.60932 13.9851C7.17782 13.9851 6.82802 13.5987 6.82802 13.122C6.82802 12.6851 7.12195 12.324 7.5033 12.2669L7.60932 12.259L10.6474 12.2584L10.6477 8.90674C10.6477 8.43009 10.9975 8.04369 11.429 8.04369Z" fill="#666666"/>
</svg>
