<svg width="24" height="25" viewBox="0 0 24 25" fill="none" xmlns="http://www.w3.org/2000/svg">
<path d="M12.0694 0.40015C17.0536 0.436975 21.4982 3.54169 23.2409 8.2047C24.9838 12.8682 23.6622 18.1218 19.9195 21.4095C16.1773 24.6968 10.7913 25.3365 6.38128 23.0176L6.32631 22.9984C6.31773 22.9934 6.31635 22.9891 6.31451 22.9834L5.49547 22.5199C5.32866 22.4516 5.1438 22.4406 5.03094 22.4691C4.17954 22.7752 3.30939 23.0266 2.42583 23.2217L2.26387 23.2412C1.2912 23.2628 0.801124 22.6317 0.801124 21.7132L0.824574 21.5164C1.04545 20.6029 1.32227 19.7038 1.63732 18.8712C1.68618 18.7136 1.66992 18.5431 1.58559 18.3851L1.365 17.955C-0.584724 14.2272 -0.43769 9.75236 1.75253 6.16018C3.94247 2.56846 7.85544 0.38341 12.0694 0.40015ZM12.0578 2.07361L11.7208 2.07889C8.22575 2.17889 5.00787 4.0375 3.18217 7.03184C1.29783 10.1223 1.17134 13.9719 2.85177 17.1849L3.06888 17.6083C3.35764 18.1487 3.41805 18.782 3.22048 19.4142C2.91346 20.2296 2.65685 21.0631 2.45209 21.9099L2.56542 21.4685L3.03909 21.345C3.20169 21.3002 3.36468 21.253 3.52853 21.2033L4.02308 21.0467L4.52542 20.8741C5.05607 20.728 5.62025 20.7618 6.17604 20.9909C6.29271 21.0471 6.43747 21.1252 6.61995 21.2284L7.12673 21.5192C7.13531 21.5215 7.14283 21.5235 7.14857 21.5251L7.13377 21.5232L7.47905 21.6962C11.1097 23.4492 15.435 22.9337 18.5502 20.376L18.8144 20.1515C22.0349 17.3226 23.1718 12.8029 21.6724 8.79087C20.1728 4.77839 16.3475 2.10624 12.0578 2.07361Z" fill="#200E32"/>
</svg>
