<svg width="23" height="29" viewBox="0 0 23 29" fill="none" xmlns="http://www.w3.org/2000/svg">
<path fill-rule="evenodd" clip-rule="evenodd" d="M22.5757 23.2703C22.5757 27.8847 16.2477 28.4181 11.4891 28.4181L11.1485 28.4178C8.11674 28.4105 0.399658 28.219 0.399658 23.2423C0.399658 18.7221 6.47335 18.118 11.1957 18.0952L11.8296 18.0948C14.8612 18.1022 22.5757 18.2936 22.5757 23.2703ZM11.4891 20.1945C5.52366 20.1945 2.49966 21.2193 2.49966 23.2423C2.49966 25.2835 5.52366 26.3181 11.4891 26.3181C17.4531 26.3181 20.4757 25.2933 20.4757 23.2703C20.4757 21.2291 17.4531 20.1945 11.4891 20.1945ZM11.4891 0.599548C15.5883 0.599548 18.9217 3.93435 18.9217 8.03355C18.9217 12.1327 15.5883 15.4661 11.4891 15.4661H11.4443C7.35346 15.4535 4.03966 12.1173 4.05361 8.02935C4.05361 3.93435 7.38846 0.599548 11.4891 0.599548ZM11.4891 2.59875C8.49166 2.59875 6.05283 5.03615 6.05283 8.03355C6.04306 11.0211 8.46366 13.4571 11.4485 13.4683L11.4891 14.4679V13.4683C14.4851 13.4683 16.9225 11.0295 16.9225 8.03355C16.9225 5.03615 14.4851 2.59875 11.4891 2.59875Z" fill="black" fill-opacity="0.6"/>
</svg>
