<svg width="21" height="22" viewBox="0 0 21 22" fill="none" xmlns="http://www.w3.org/2000/svg">
<path fill-rule="evenodd" clip-rule="evenodd" d="M10.3389 0.599976C15.7089 0.599976 20.0769 4.96798 20.0769 10.338C20.0769 12.8715 19.1046 15.1823 17.5135 16.9165L20.6443 20.0407C20.9373 20.3337 20.9383 20.8077 20.6453 21.1007C20.4993 21.2487 20.3063 21.3217 20.1143 21.3217C19.9233 21.3217 19.7313 21.2487 19.5843 21.1027L16.4157 17.943C14.7489 19.2778 12.6355 20.077 10.3389 20.077C4.96887 20.077 0.599865 15.708 0.599865 10.338C0.599865 4.96798 4.96887 0.599976 10.3389 0.599976ZM10.3389 2.09998C5.79587 2.09998 2.09986 5.79498 2.09986 10.338C2.09986 14.881 5.79587 18.577 10.3389 18.577C14.8809 18.577 18.5769 14.881 18.5769 10.338C18.5769 5.79498 14.8809 2.09998 10.3389 2.09998Z" fill="#1C1C1C" fill-opacity="0.7"/>
</svg>
