<svg width="24" height="24" viewBox="0 0 24 24" fill="none" xmlns="http://www.w3.org/2000/svg">
<path fill-rule="evenodd" clip-rule="evenodd" d="M11.1661 14.7813L15.5545 21.9009C15.7465 22.2129 16.0465 22.2093 16.1677 22.1925C16.2889 22.1757 16.5805 22.1013 16.6861 21.7473L22.1737 3.21334C22.2697 2.88574 22.0933 2.66254 22.0141 2.58334C21.9373 2.50414 21.7177 2.33494 21.3997 2.42494L2.85246 7.85614C2.50086 7.95934 2.42406 8.25454 2.40726 8.37574C2.39046 8.49934 2.38566 8.80534 2.69646 9.00094L9.89766 13.5045L16.2601 7.07494C16.6093 6.72214 17.1793 6.71854 17.5333 7.06774C17.8873 7.41694 17.8897 7.98814 17.5405 8.34094L11.1661 14.7813ZM16.0741 23.9997C15.2389 23.9997 14.4733 23.5749 14.0221 22.8453L9.36966 15.2961L1.74246 10.5261C0.920462 10.0113 0.490862 9.09454 0.624062 8.13094C0.756062 7.16734 1.41726 6.40174 2.34606 6.12934L20.8933 0.698144C21.7465 0.448544 22.6609 0.684944 23.2897 1.31134C23.9185 1.94374 24.1525 2.86774 23.8981 3.72454L18.4105 22.2573C18.1357 23.1897 17.3677 23.8485 16.4065 23.9769C16.2937 23.9913 16.1845 23.9997 16.0741 23.9997Z" fill="black" fill-opacity="0.64"/>
</svg>
