<svg width="21" height="25" viewBox="0 0 21 25" fill="none" xmlns="http://www.w3.org/2000/svg">
<path d="M11.1809 0.400017C11.959 0.399674 12.704 0.736754 13.2464 1.33447C13.7887 1.93218 14.0821 2.73963 14.0585 3.49321L14.0678 3.67044C14.0867 3.84497 14.1398 4.01341 14.2258 4.16867C14.3933 4.47482 14.6677 4.69699 14.9883 4.78618C15.309 4.87538 15.6495 4.82427 15.9721 4.62208L16.1519 4.52261C17.5016 3.84279 19.1204 4.38303 19.8691 5.77515L20.5419 7.0261C20.5597 7.05908 20.5753 7.09316 20.5888 7.12811L20.6512 7.26212C21.253 8.63824 20.8248 10.2751 19.6815 11.1068L19.3992 11.2968C19.2515 11.4071 19.1285 11.5511 19.0359 11.7242C18.8688 12.0315 18.8229 12.3976 18.9085 12.7413C18.994 13.085 19.2039 13.3779 19.5223 13.5752L19.7055 13.7009C20.259 14.1157 20.6588 14.727 20.8331 15.4276C21.0299 16.2181 20.9244 17.06 20.5347 17.7765L19.8108 19.0684L19.7017 19.2507C18.8512 20.5609 17.1999 20.9613 15.9398 20.182L15.7904 20.0995C15.6346 20.0249 15.4665 19.9839 15.3135 19.9793C14.9806 19.9775 14.6608 20.1185 14.4254 20.3707C14.19 20.6229 14.0585 20.9654 14.0593 21.3638L14.0504 21.5697C13.9286 23.1644 12.6825 24.4 11.1813 24.4H9.82563C8.23569 24.4 6.94678 23.0191 6.94839 21.3704L6.93908 21.1932C6.92014 21.0187 6.8671 20.8502 6.77675 20.6869C6.61286 20.38 6.34132 20.1559 6.0225 20.0645C5.70368 19.9731 5.36398 20.0219 5.03517 20.2256L4.8398 20.3301C4.22196 20.6278 3.52506 20.6828 2.87203 20.484C2.13527 20.2596 1.51233 19.73 1.14881 19.0269L0.449417 17.733L0.356334 17.5413C-0.280572 16.101 0.218666 14.3695 1.48573 13.585L1.60128 13.5074C1.93978 13.2564 2.14274 12.8426 2.14274 12.4C2.14274 11.9188 1.9031 11.4741 1.4839 11.2138L1.31381 11.0969C0.0908158 10.1857 -0.282854 8.4166 0.474771 7.00836L1.18727 5.754C1.97969 4.28053 3.73578 3.77222 5.08641 4.60207L5.23262 4.68558C5.38167 4.75887 5.54358 4.79777 5.69947 4.79955C6.38687 4.79963 6.9469 4.20824 6.95731 3.45019L6.96664 3.21738C7.02293 2.49661 7.31486 1.81926 7.79209 1.30551C8.33052 0.725877 9.06234 0.400017 9.82563 0.400017H11.1809ZM11.1813 2.1373H9.82563C9.49375 2.1373 9.17555 2.27899 8.94145 2.531C8.73396 2.75437 8.60702 3.0489 8.58475 3.32395L8.57001 3.68982C8.45647 5.28506 7.21239 6.53701 5.69097 6.53679C5.29878 6.53243 4.91216 6.43953 4.51788 6.24432L4.30679 6.12504C3.70532 5.7558 2.93837 5.9778 2.58246 6.63911L1.86995 7.89348C1.54347 8.50055 1.70675 9.27361 2.21228 9.65111L2.49838 9.84522C3.28631 10.416 3.7643 11.3716 3.7643 12.4C3.7643 13.4135 3.29965 14.3609 2.49645 14.9556L2.32547 15.0707C1.76269 15.4196 1.54551 16.1728 1.80708 16.766L1.86885 16.8939L2.55936 18.1701C2.72151 18.4836 2.99357 18.7149 3.31534 18.8129C3.60053 18.8997 3.90492 18.8757 4.14238 18.7622L4.26168 18.6996C4.92028 18.2879 5.70509 18.1751 6.44169 18.3863C7.17828 18.5975 7.80562 19.1151 8.17772 19.8122C8.3779 20.1736 8.50457 20.5758 8.5536 21.0382L8.57572 21.4625C8.64398 22.1374 9.17754 22.6627 9.82563 22.6627H11.1813C11.8367 22.6627 12.3812 22.1228 12.4323 21.4614L12.4386 21.3305C12.4349 20.5102 12.7374 19.7223 13.2788 19.1422C13.8202 18.5622 14.5556 18.238 15.3391 18.2423C15.7235 18.2533 16.1018 18.3456 16.4885 18.5321L16.8353 18.7218C17.3795 18.9777 18.025 18.791 18.3522 18.2881L18.4318 18.1549L19.1389 16.8923C19.306 16.585 19.3519 16.2189 19.2663 15.8752C19.1905 15.5706 19.0167 15.3048 18.8059 15.1458L18.5071 14.9434C17.9358 14.5297 17.5205 13.9075 17.3417 13.1889C17.1449 12.3984 17.2504 11.5565 17.6318 10.8552C17.8406 10.4646 18.1276 10.1288 18.5017 9.8504L18.6781 9.73138C19.24 9.37926 19.457 8.62606 19.1973 8.03062L19.1197 7.87037L19.1058 7.83673L18.4641 6.64252C18.1605 6.07812 17.5289 5.83425 16.993 6.02694L16.8712 6.0792L16.758 6.141C16.1016 6.55531 15.3182 6.67285 14.5808 6.46771C13.8434 6.26257 13.2124 5.7516 12.8292 5.05141C12.629 4.69006 12.5023 4.28783 12.4533 3.82547L12.4389 3.523C12.4486 3.1591 12.3205 2.80645 12.0836 2.54541C11.8468 2.28437 11.5214 2.1373 11.1813 2.1373ZM10.5084 8.4782C12.5301 8.4782 14.1689 10.2341 14.1689 12.4C14.1689 14.566 12.5301 16.3218 10.5084 16.3218C8.48672 16.3218 6.84783 14.566 6.84783 12.4C6.84783 10.2341 8.48672 8.4782 10.5084 8.4782ZM10.5084 10.2155C9.38228 10.2155 8.46939 11.1935 8.46939 12.4C8.46939 13.6065 9.38228 14.5845 10.5084 14.5845C11.6345 14.5845 12.5474 13.6065 12.5474 12.4C12.5474 11.1935 11.6345 10.2155 10.5084 10.2155Z" fill="#666666"/>
</svg>
