<svg width="31" height="24" viewBox="0 0 31 24" fill="none" xmlns="http://www.w3.org/2000/svg">
<path fill-rule="evenodd" clip-rule="evenodd" d="M15.4412 14.9796L15.5993 14.9796L15.9529 14.9808C18.6557 14.9986 24.8324 15.2716 24.8324 19.4582C24.8324 23.6172 18.871 23.8884 15.995 23.9061L14.9295 23.9061C12.2265 23.8883 6.04859 23.6156 6.04859 19.4344C6.04859 15.2701 12.2265 14.9985 14.9295 14.9808L15.2831 14.9796C15.338 14.9796 15.3907 14.9796 15.4412 14.9796ZM15.4412 17.0796C12.1148 17.0796 8.14859 17.4884 8.14859 19.4344C8.14859 21.3363 11.8781 21.781 15.1372 21.8062L15.4412 21.8074C18.7676 21.8074 22.7324 21.4 22.7324 19.4582C22.7324 17.4926 18.7676 17.0796 15.4412 17.0796ZM26.5762 14.4114C29.9684 14.9196 30.681 16.5128 30.681 17.7602C30.681 18.5218 30.3814 19.912 28.3794 20.675C28.2562 20.7212 28.1302 20.7436 28.0056 20.7436C27.5828 20.7436 27.1838 20.486 27.0242 20.0674C26.817 19.5256 27.09 18.918 27.6318 18.7122C28.581 18.351 28.581 17.952 28.581 17.7602C28.581 17.147 27.8012 16.7186 26.264 16.489C25.6914 16.4022 25.2952 15.8688 25.3806 15.2934C25.466 14.7194 25.998 14.3372 26.5762 14.4114ZM5.50035 15.2934C5.58575 15.8688 5.18955 16.4022 4.61695 16.489C3.07975 16.7186 2.29995 17.147 2.29995 17.7602C2.29995 17.952 2.29995 18.3496 3.25055 18.7122C3.79235 18.918 4.06535 19.5256 3.85815 20.0674C3.69855 20.486 3.29955 20.7436 2.87675 20.7436C2.75215 20.7436 2.62615 20.7212 2.50295 20.675C0.499551 19.9106 0.199951 18.5204 0.199951 17.7602C0.199951 16.5142 0.912551 14.9196 4.30615 14.4114C4.88435 14.3386 5.41355 14.7194 5.50035 15.2934ZM15.4412 0.399963C18.9692 0.399963 21.8378 3.26996 21.8378 6.79656C21.8378 10.3232 18.9692 13.1932 15.4412 13.1932H15.4034C13.6954 13.1876 12.0952 12.5184 10.8968 11.3088C9.69559 10.1006 9.03899 8.49616 9.04594 6.79236C9.04594 3.26996 11.9146 0.399963 15.4412 0.399963ZM15.4412 2.49996C13.0724 2.49996 11.146 4.42776 11.146 6.79656C11.1418 7.94456 11.5814 9.01836 12.3864 9.82896C13.1914 10.6396 14.2638 11.089 15.4062 11.0932L15.4412 12.1432V11.0932C17.81 11.0932 19.7378 9.16676 19.7378 6.79656C19.7378 4.42776 17.81 2.49996 15.4412 2.49996ZM24.1058 1.77126C26.567 2.17586 28.3548 4.28146 28.3548 6.77766C28.3492 9.29066 26.4718 11.4467 23.9868 11.7953C23.9378 11.8023 23.8888 11.8051 23.8412 11.8051C23.326 11.8051 22.8766 11.4257 22.8024 10.9007C22.7226 10.3253 23.1216 9.79466 23.697 9.71486C25.153 9.51046 26.252 8.24766 26.2548 6.77486C26.2548 5.31466 25.2076 4.07986 23.7642 3.84326C23.193 3.74946 22.8052 3.20906 22.899 2.63646C22.9942 2.06386 23.5304 1.68026 24.1058 1.77126ZM7.98339 2.63646C8.07719 3.20906 7.68939 3.74946 7.11819 3.84326C5.67479 4.07986 4.62759 5.31466 4.62759 6.77766C4.63039 8.24766 5.72939 9.51186 7.18399 9.71486C7.75939 9.79466 8.15839 10.3253 8.07859 10.9007C8.00439 11.4257 7.55499 11.8051 7.03979 11.8051C6.99219 11.8051 6.94319 11.8023 6.89419 11.7953C4.40919 11.4467 2.53319 9.29066 2.52759 6.78046C2.52759 4.28146 4.31539 2.17586 6.77659 1.77126C7.36599 1.67886 7.88819 2.06666 7.98339 2.63646Z" fill="black" fill-opacity="0.6"/>
</svg>
