<svg width="23" height="19" viewBox="0 0 23 19" fill="none" xmlns="http://www.w3.org/2000/svg">
<path d="M12.1822 0.199738C14.8373 0.199738 16.6857 2.04051 16.8826 4.74094L19.7844 3.44224C21.0398 2.88141 22.4097 3.83431 22.5095 5.28232L22.5153 5.45154V13.4183C22.5153 14.903 21.1918 15.9304 19.9293 15.4843L19.7839 15.4262L16.8825 14.1274C16.6852 16.8261 14.833 18.6689 12.1822 18.6689H5.31038C2.49862 18.6689 0.592529 16.606 0.592529 13.6433V5.22534C0.592529 2.26264 2.49862 0.199738 5.31038 0.199738H12.1822ZM12.1822 1.99974H5.31038C3.40252 1.99974 2.23676 3.2614 2.23676 5.22534V13.6433C2.23676 15.6073 3.40252 16.8689 5.31038 16.8689H12.1822C14.0853 16.8689 15.2558 15.604 15.2558 13.6433L15.2556 12.8207C15.2552 12.8079 15.2551 12.795 15.2553 12.7822L15.2558 5.22534C15.2558 3.26187 14.0893 1.99974 12.1822 1.99974ZM20.4804 5.08565L20.406 5.10863L16.9 6.67614V12.1913L20.4056 13.7598C20.6034 13.8482 20.8173 13.7171 20.8624 13.5025L20.871 13.4183V5.45154C20.871 5.21778 20.6788 5.05039 20.4804 5.08565Z" fill="#666666"/>
</svg>
