<svg width="15" height="18" viewBox="0 0 15 18" fill="none" xmlns="http://www.w3.org/2000/svg">
<path fill-rule="evenodd" clip-rule="evenodd" d="M13.7993 7.44078C14.1313 7.44078 14.3993 7.70958 14.3993 8.04078C14.3993 11.7145 11.5796 14.7388 7.99954 15.0456L7.99929 17.0001C7.99929 17.3313 7.73049 17.6001 7.39929 17.6001C7.06809 17.6001 6.79929 17.3313 6.79929 17.0001L6.79984 15.0456C3.2194 14.7393 0.399292 11.7148 0.399292 8.04078C0.399292 7.70958 0.668092 7.44078 0.999292 7.44078C1.33129 7.44078 1.59929 7.70958 1.59929 8.04078C1.59929 11.2552 4.20089 13.8712 7.39929 13.8712C10.5977 13.8712 13.1993 11.2552 13.1993 8.04078C13.1993 7.70958 13.4681 7.44078 13.7993 7.44078ZM7.39929 0.400055C9.52169 0.400055 11.2489 2.13365 11.2489 4.26485V8.01525C11.2489 10.1457 9.52169 11.8793 7.39929 11.8793C5.27689 11.8793 3.54969 10.1457 3.54969 8.01525V4.26485C3.54969 2.13365 5.27689 0.400055 7.39929 0.400055ZM7.39929 1.60005C5.93849 1.60005 4.74969 2.79525 4.74969 4.26485V8.01525C4.74969 9.48326 5.93849 10.6793 7.39929 10.6793C8.86009 10.6793 10.0489 9.48326 10.0489 8.01525V4.26485C10.0489 2.79525 8.86009 1.60005 7.39929 1.60005Z" fill="black" fill-opacity="0.46"/>
</svg>
