<svg width="29" height="29" viewBox="0 0 29 29" fill="none" xmlns="http://www.w3.org/2000/svg">
<path fill-rule="evenodd" clip-rule="evenodd" d="M27.1819 18.4292C27.7601 18.4726 28.1927 18.978 28.1493 19.5562L27.8833 23.0688C27.6635 25.9668 25.2177 28.2362 22.3127 28.2362H6.07265C3.16765 28.2362 0.721853 25.9668 0.502053 23.0688L0.236053 19.5562C0.192653 18.978 0.626653 18.4726 1.20485 18.4292C1.78585 18.4082 2.28705 18.8184 2.33185 19.398L2.59645 22.9092C2.73365 24.718 4.25965 26.1362 6.07265 26.1362H22.3127C24.1257 26.1362 25.6531 24.718 25.7889 22.9092L26.0549 19.398C26.0997 18.8184 26.6135 18.4068 27.1819 18.4292ZM15.9989 0.600098C18.103 0.600098 19.8462 2.17687 20.1088 4.21073L22.8661 4.21196C25.8005 4.21196 28.1861 6.60456 28.1861 9.54736V14.362C28.1861 14.7358 27.9873 15.0802 27.6667 15.2678C24.211 17.2915 19.8335 18.4718 15.2424 18.6293L15.2429 21.1473C15.2429 21.7269 14.7725 22.1973 14.1929 22.1973C13.6133 22.1973 13.1429 21.7269 13.1429 21.1473L13.142 18.6296C8.55553 18.4736 4.17769 17.293 0.719473 15.2678C0.397473 15.0802 0.200073 14.7358 0.200073 14.362V9.53336C0.200073 6.59896 2.59267 4.21196 5.53407 4.21196L8.27711 4.21073C8.53965 2.17687 10.2828 0.600098 12.3869 0.600098H15.9989ZM22.8661 6.31196H5.53407C3.75047 6.31196 2.30007 7.75676 2.30007 9.53336V13.7502C5.62327 15.5558 9.8128 16.5454 14.1735 16.5474L14.1929 16.5455L14.2085 16.5461L14.8751 16.5392C18.9992 16.4409 22.9334 15.4624 26.0861 13.7502V9.54736C26.0861 7.76236 24.6427 6.31196 22.8661 6.31196ZM15.9989 2.7001H12.3869C11.4443 2.7001 10.6485 3.34168 10.4134 4.21109H17.9724C17.7374 3.34168 16.9416 2.7001 15.9989 2.7001Z" fill="black" fill-opacity="0.6"/>
</svg>
